<svg width="137" height="122" viewBox="0 0 137 122" fill="none" xmlns="http://www.w3.org/2000/svg">
<path fill-rule="evenodd" clip-rule="evenodd" d="M68.5 12L11.7753 110.25H125.225L68.5 12ZM77.1602 5C73.3112 -1.66667 63.6887 -1.66669 59.8397 4.99997L1.38299 106.25C-2.46601 112.917 2.34521 121.25 10.0432 121.25H126.957C134.655 121.25 139.466 112.917 135.617 106.25L77.1602 5Z" fill="#FF2900"/>
<path d="M75.8049 35.7925V62.9625C75.8049 65.8758 75.6308 68.7733 75.2824 71.655C74.9341 74.505 74.4749 77.4183 73.9049 80.395H63.9299C63.3599 77.4183 62.9007 74.505 62.5524 71.655C62.2041 68.7733 62.0299 65.8758 62.0299 62.9625V35.7925H75.8049ZM60.4149 97.5425C60.4149 96.4025 60.6208 95.3417 61.0324 94.36C61.4758 93.3783 62.0616 92.5233 62.7899 91.795C63.5499 91.0667 64.4366 90.4967 65.4499 90.085C66.4633 89.6417 67.5716 89.42 68.7749 89.42C69.9466 89.42 71.0391 89.6417 72.0524 90.085C73.0658 90.4967 73.9524 91.0667 74.7124 91.795C75.4724 92.5233 76.0583 93.3783 76.4699 94.36C76.9133 95.3417 77.1349 96.4025 77.1349 97.5425C77.1349 98.6825 76.9133 99.7592 76.4699 100.772C76.0583 101.754 75.4724 102.609 74.7124 103.337C73.9524 104.066 73.0658 104.636 72.0524 105.048C71.0391 105.459 69.9466 105.665 68.7749 105.665C67.5716 105.665 66.4633 105.459 65.4499 105.048C64.4366 104.636 63.5499 104.066 62.7899 103.337C62.0616 102.609 61.4758 101.754 61.0324 100.772C60.6208 99.7592 60.4149 98.6825 60.4149 97.5425Z" fill="#FF2900"/>
<path fill-rule="evenodd" clip-rule="evenodd" d="M76.8049 34.7925V62.9625C76.8049 65.9158 76.6284 68.8534 76.2752 71.775L76.275 71.7763C75.9238 74.6499 75.4611 77.5855 74.8871 80.5831L74.7316 81.395H63.1032L62.9478 80.5831C62.3738 77.5855 61.911 74.6499 61.5598 71.7763L61.5596 71.775C61.2065 68.8534 61.0299 65.9158 61.0299 62.9625V34.7925H76.8049ZM60.1155 93.9608L60.121 93.9484C60.6118 92.8618 61.2652 91.9055 62.0828 91.0879L62.0903 91.0804L62.098 91.073C62.9498 90.2567 63.9405 89.6205 65.0612 89.1635C66.2084 88.6638 67.4506 88.42 68.7749 88.42C70.0716 88.42 71.2974 88.6652 72.4411 89.1635C73.5619 89.6206 74.5526 90.2568 75.4043 91.073C76.2611 91.8941 76.923 92.8594 77.3868 93.9607C77.8882 95.0757 78.1349 96.2737 78.1349 97.5425C78.1349 98.8135 77.8874 100.025 77.3891 101.166C76.9252 102.27 76.2626 103.237 75.4043 104.059C74.5495 104.879 73.5546 105.517 72.4288 105.974C71.2876 106.438 70.0663 106.665 68.7749 106.665C67.4555 106.665 66.2179 106.439 65.0735 105.974C63.9477 105.517 62.9529 104.879 62.098 104.059L62.0903 104.052L62.0828 104.045C61.2652 103.227 60.6118 102.271 60.121 101.184L60.1132 101.167L60.1059 101.149C59.6437 100.011 59.4149 98.806 59.4149 97.5425C59.4149 96.2792 59.6436 95.0859 60.1102 93.9733L60.1155 93.9608ZM76.4699 100.772C76.9132 99.7592 77.1349 98.6825 77.1349 97.5425C77.1349 96.4025 76.9132 95.3417 76.4699 94.36C76.0583 93.3783 75.4724 92.5233 74.7124 91.795C73.9524 91.0667 73.0658 90.4967 72.0524 90.085C71.0391 89.6417 69.9466 89.42 68.7749 89.42C67.5716 89.42 66.4633 89.6417 65.4499 90.085C64.4366 90.4967 63.5499 91.0667 62.7899 91.795C62.0616 92.5233 61.4757 93.3783 61.0324 94.36C60.6207 95.3417 60.4149 96.4025 60.4149 97.5425C60.4149 98.6825 60.6207 99.7592 61.0324 100.772C61.4757 101.754 62.0616 102.609 62.7899 103.337C63.5499 104.066 64.4366 104.636 65.4499 105.048C66.4633 105.459 67.5716 105.665 68.7749 105.665C69.9466 105.665 71.0391 105.459 72.0524 105.048C73.0658 104.636 73.9524 104.066 74.7124 103.337C75.4724 102.609 76.0583 101.754 76.4699 100.772ZM62.5524 71.655C62.2041 68.7733 62.0299 65.8758 62.0299 62.9625V35.7925H75.8049V62.9625C75.8049 65.8758 75.6308 68.7733 75.2824 71.655C74.9341 74.505 74.4749 77.4183 73.9049 80.395H63.9299C63.3599 77.4183 62.9008 74.505 62.5524 71.655Z" fill="#FF2900"/>
</svg>
