<svg width="198" height="138" viewBox="0 0 198 138" fill="none" xmlns="http://www.w3.org/2000/svg">
<rect x="0.5" y="0.5" width="11" height="11" rx="3.5" fill="#FF2900" stroke="#FF2900"/>
<rect x="18.5" y="3.5" width="179" height="4" rx="2" fill="#FF2900" stroke="#FF2900"/>
<rect x="0.5" y="54.5" width="11" height="11" rx="3.5" fill="#FF2900" stroke="#FF2900"/>
<rect x="18.5" y="57.5" width="179" height="4" rx="2" fill="#FF2900" stroke="#FF2900"/>
<rect x="0.5" y="90.5" width="11" height="11" rx="3.5" fill="#FF2900" stroke="#FF2900"/>
<rect x="18.5" y="93.5" width="179" height="4" rx="2" fill="#FF2900" stroke="#FF2900"/>
<rect x="0.5" y="126.5" width="11" height="11" rx="3.5" fill="#FF2900" stroke="#FF2900"/>
<rect x="18.5" y="129.5" width="179" height="4" rx="2" fill="#FF2900" stroke="#FF2900"/>
<rect x="0.5" y="18.5" width="11" height="11" rx="3.5" fill="#FF2900" stroke="#FF2900"/>
<rect x="18.5" y="21.5" width="68" height="4" rx="2" fill="#FF2900" stroke="#FF2900"/>
<rect x="102.5" y="21.5" width="95" height="4" rx="2" fill="#FF2900" stroke="#FF2900"/>
<rect x="0.5" y="108.5" width="11" height="11" rx="3.5" fill="#FF2900" stroke="#FF2900"/>
<rect x="18.5" y="111.5" width="68" height="4" rx="2" fill="#FF2900" stroke="#FF2900"/>
<rect x="102.5" y="111.5" width="95" height="4" rx="2" fill="#FF2900" stroke="#FF2900"/>
<rect x="0.5" y="36.5" width="11" height="11" rx="3.5" fill="#FF2900" stroke="#FF2900"/>
<rect x="18.5" y="39.5" width="99" height="4" rx="2" fill="#FF2900" stroke="#FF2900"/>
<rect x="136.5" y="39.5" width="61" height="4" rx="2" fill="#FF2900" stroke="#FF2900"/>
<rect x="0.5" y="72.5" width="11" height="11" rx="3.5" fill="#FF2900" stroke="#FF2900"/>
<rect x="18.5" y="75.5" width="99" height="4" rx="2" fill="#FF2900" stroke="#FF2900"/>
<rect x="136.5" y="75.5" width="61" height="4" rx="2" fill="#FF2900" stroke="#FF2900"/>
</svg>
