<?xml version="1.0" encoding="UTF-8"?>
<svg id="Layer_1" data-name="Layer 1" xmlns="http://www.w3.org/2000/svg" viewBox="0 0 211.34 242.64">
  <defs>
    <style>
      .cls-1 {
        fill: #ff2900;
      }

      .cls-2 {
        fill: none;
      }
    </style>
  </defs>
  <polygon class="cls-2" points="82.26 227.28 208.16 154.6 208.16 149.7 78.02 224.84 82.26 227.28"/>
  <polygon class="cls-2" points="103.96 239.82 208.16 179.66 208.16 171.21 96.64 235.59 103.96 239.82"/>
  <polygon class="cls-2" points="42.42 204.28 208.16 108.59 208.16 106.69 40.77 203.33 42.42 204.28"/>
  <polygon class="cls-2" points="72.95 221.91 208.16 143.84 208.16 138.95 68.71 219.46 72.95 221.91"/>
  <polygon class="cls-2" points="93.47 233.76 208.16 167.54 208.16 160.46 87.33 230.21 93.47 233.76"/>
  <polygon class="cls-2" points="51.73 209.66 208.16 119.35 208.16 117.45 50.08 208.71 51.73 209.66"/>
  <polygon class="cls-2" points="61.04 215.04 208.16 130.1 208.16 128.2 59.4 214.09 61.04 215.04"/>
  <polygon class="cls-1" points="208.16 106.69 208.16 62.39 105.28 3 2.41 62.39 2.41 181.18 40.77 203.33 208.16 106.69"/>
  <polygon class="cls-1" points="50.08 208.71 208.16 117.45 208.16 108.59 42.42 204.28 50.08 208.71"/>
  <polygon class="cls-1" points="59.4 214.09 208.16 128.2 208.16 119.35 51.73 209.66 59.4 214.09"/>
  <polygon class="cls-1" points="68.71 219.46 208.16 138.95 208.16 130.1 61.04 215.04 68.71 219.46"/>
  <polygon class="cls-1" points="78.02 224.84 208.16 149.7 208.16 143.84 72.95 221.91 78.02 224.84"/>
  <polygon class="cls-1" points="87.33 230.21 208.16 160.46 208.16 154.6 82.26 227.28 87.33 230.21"/>
  <polygon class="cls-1" points="96.64 235.59 208.16 171.21 208.16 167.54 93.47 233.76 96.64 235.59"/>
  <polygon class="cls-1" points="105.28 240.58 208.16 181.18 208.16 179.66 103.96 239.82 105.28 240.58"/>
</svg>