<?xml version="1.0" encoding="UTF-8"?>
<svg id="Layer_1" xmlns="http://www.w3.org/2000/svg" version="1.1" xmlns:xlink="http://www.w3.org/1999/xlink" viewBox="0 0 952 140">
  <!-- Generator: Adobe Illustrator 29.5.1, SVG Export Plug-In . SVG Version: 2.1.0 Build 141)  -->
  <defs>
    <style>
      .st0, .st1 {
        fill: none;
      }

      .st2 {
        clip-path: url(#clippath-1);
      }

      .st3 {
        clip-path: url(#clippath);
      }

      .st1 {
        stroke: #ece8d7;
        stroke-miterlimit: 10;
        stroke-width: 2px;
      }
    </style>
    <clipPath id="clippath">
      <rect class="st0" width="952" height="140"/>
    </clipPath>
    <clipPath id="clippath-1">
      <rect class="st0" y="-300" width="952" height="1241.7"/>
    </clipPath>
  </defs>
  <g class="st3">
    <g id="Mask_Group_3">
      <g id="Group_4">
        <g class="st2">
          <g id="Group_3">
            <path id="Path_1" class="st1" d="M447.2-297.4s8.7,476.4-140.1,942.5"/>
            <path id="Path_2" class="st1" d="M2.6,578.6S346.7,249.5,391.1-297.4"/>
            <path id="Path_3" class="st1" d="M2.6,310.3S227.1,96.2,328.4-297.4"/>
            <path id="Path_4" class="st1" d="M503.6-297.4s-8.7,476.4,140.1,942.5"/>
            <path id="Path_5" class="st1" d="M948.3,310.3s-224.5-214.1-325.9-607.8"/>
            <path id="Path_6" class="st1" d="M948.3,578.6s-344.1-329.1-388.5-876.1"/>
            <line id="Line_1" class="st1" x1="2.6" y1="357.6" x2="2.6" y2="252.6"/>
            <line id="Line_2" class="st1" x1="2.6" y1="-255.3" x2="2.6" y2="-276.8"/>
            <line id="Line_3" class="st1" x1="949.4" y1="-276.9" x2="949.4" y2="-255.5"/>
            <line id="Line_4" class="st1" x1="949.4" y1="252.8" x2="949.4" y2="357.7"/>
            <line id="Line_5" class="st1" x1="2.6" y1="-153.1" x2="2.6" y2="-233.4"/>
            <line id="Line_7" class="st1" x1="949.4" y1="-233.6" x2="949.4" y2="-153.6"/>
            <path id="Path_7" class="st1" d="M2.6,542.1v380.8c0,9,7.3,16.3,16.3,16.3h914.3c9,0,16.3-7.3,16.3-16.3h0v-380.7c-137,48.1-299.3,75.9-473.3,75.9s-336.5-27.9-473.6-76Z"/>
            <path id="Path_8" class="st1" d="M949.4-276.9v-4.2c0-4.5-1.9-8.8-5.1-11.9-4.1-1.5-8.3-3-12.4-4.4h-31.8c17,6.5,33.4,13.3,49.3,20.5Z"/>
            <path id="Path_9" class="st1" d="M476.1,451.1c-179.8,0-344.8-35.1-473.6-93.5v96.2c134.7,50,297.8,79.3,473.6,79.3s338.7-29.3,473.3-79.2v-96.2c-128.7,58.4-293.6,93.4-473.3,93.4Z"/>
            <path id="Path_10" class="st1" d="M2.6-281.2v4.4c16-7.3,32.5-14.1,49.6-20.6h-31.8c-4.3,1.5-8.6,3-12.9,4.6-3.2,3.1-5,7.3-5,11.7Z"/>
            <path id="Path_11" class="st1" d="M2.6-233.4c38.6-24.7,84.2-46.3,135.3-64h-51.3c-28.9,12.1-57,26.1-83.9,42.1v21.9Z"/>
            <path id="Path_12" class="st1" d="M949.4-255.5c-26.9-15.9-54.8-29.9-83.7-41.9h-51.3c51,17.7,96.5,39.2,135,63.8v-21.9Z"/>
            <path id="Path_13" class="st1" d="M476.1,280.2c-191.3,0-362-45.7-473.6-117.2v89.6c119,70.8,287.1,115,473.6,115s354.3-44.1,473.3-114.8v-89.5c-111.6,71.4-282.2,117-473.3,117Z"/>
            <path id="Path_14" class="st1" d="M476.1,199.1c223.9,0,413-83.1,473.3-197v-155.7c-30.9-58.4-95.7-108.7-181.7-143.8h-39.5c99.6,42,163.9,108.3,163.9,183,0,127-186.2,230-416,230S60.2,12.6,60.2-114.5s64.3-140.9,163.9-183h-39.5C98.3-262.2,33.4-211.7,2.6-153.1V1.6c60,114.1,249.3,197.5,473.6,197.5Z"/>
            <path id="Path_15" class="st1" d="M140.5-147.1c0,98.1,150.3,177.6,335.6,177.6s335.6-79.5,335.6-177.6-62.5-118.9-156.7-150.3h-357.8c-94.2,31.5-156.7,87-156.7,150.3Z"/>
            <path id="Path_16" class="st1" d="M594.8-297.4c78,22,131.1,64.9,131.1,114.3,0,71.7-111.8,129.8-249.7,129.8s-249.7-58.1-249.7-129.8,52.4-91.8,129.7-113.9"/>
          </g>
        </g>
      </g>
    </g>
  </g>
</svg>