<?xml version="1.0" encoding="UTF-8"?>
<svg id="Layer_1" data-name="Layer 1" xmlns="http://www.w3.org/2000/svg" viewBox="0 0 251 140">
  <defs>
    <style>
      .cls-1 {
        fill: #ece8d7;
      }

      .cls-2 {
        fill: #ece8d7;
      }

      .cls-3 {
        fill: #070707;
      }
    </style>
  </defs>
  <rect class="cls-2" width="251" height="140" rx="7" ry="7"/>
  <g>
    <g>
      <path class="cls-3" d="M30.67,67.05H12.4V26.85c0-3.69,1.31-6.84,3.93-9.44,2.62-2.6,5.78-3.9,9.47-3.9h29.66v21.86h-10.17c-3.13,0-5.81-1.11-8.04-3.32-2.23-2.21-3.35-4.88-3.35-8.01v-5.72c0-.45-.14-.82-.43-1.13-.28-.3-.65-.46-1.1-.46-.57,0-1,.17-1.28.52-.28.35-.43.7-.43,1.07v6.64c0,3.78,1.34,7,4.02,9.68,2.68,2.68,5.91,4.02,9.68,4.02h5.85v3.23h-5.85c-3.78,0-7,1.33-9.68,3.99-2.68,2.66-4.02,5.88-4.02,9.65v11.51Z"/>
      <path class="cls-3" d="M147.17,67.05h-21.56v-23.51c0-.49-.16-.88-.49-1.19-.33-.3-.71-.46-1.16-.46s-.83.16-1.16.49c-.33.32-.49.71-.49,1.16v23.51h-18.27V13.51h29.72c3.69,0,6.85,1.31,9.47,3.93,2.62,2.62,3.93,5.78,3.93,9.47s-1.31,6.85-3.93,9.47c-2.62,2.62-5.78,3.93-9.47,3.93,3.69,0,6.85,1.3,9.47,3.9,2.62,2.6,3.93,5.75,3.93,9.44v13.4ZM123.97,38.61c.45,0,.83-.15,1.16-.46.32-.3.49-.7.49-1.19v-18.58c0-.49-.16-.88-.49-1.19-.33-.3-.71-.46-1.16-.46s-.83.16-1.16.49c-.33.32-.49.71-.49,1.16v18.58c0,.45.16.83.49,1.16.32.33.71.49,1.16.49Z"/>
      <path class="cls-3" d="M193.03,67.05h-29.72c-3.69,0-6.85-1.31-9.47-3.93-2.62-2.62-3.93-5.78-3.93-9.47v-27.41c.24-3.61,1.63-6.64,4.17-9.07,2.54-2.44,5.61-3.65,9.23-3.65h16.32c2.64,0,5.02.69,7.16,2.07,2.13,1.38,3.77,3.21,4.9,5.48.77,1.58,1.22,3.31,1.34,5.18v12.36h-10.41c-3.09,0-5.72-1.09-7.89-3.26-2.17-2.17-3.26-4.8-3.26-7.89v-9.14c0-.12-.06-.31-.18-.58-.12-.26-.3-.5-.55-.7-.24-.2-.55-.3-.91-.3-.49,0-.87.15-1.16.46-.28.3-.43.68-.43,1.13v43.85c0,.49.16.88.49,1.19s.73.46,1.22.46c.45-.04.81-.23,1.1-.58.28-.35.43-.72.43-1.13v-9.08c0-3.04,1.09-5.65,3.26-7.83s4.8-3.26,7.89-3.26h10.41v25.09Z"/>
      <path class="cls-3" d="M238.83,67.05h-43.06v-14.01c.24-3.65,1.64-6.7,4.2-9.14s5.62-3.65,9.2-3.65c-3.57,0-6.64-1.22-9.2-3.65s-3.96-5.48-4.2-9.14v-.61c0-3.69,1.31-6.84,3.93-9.44,2.62-2.6,5.78-3.9,9.47-3.9h29.66v21.86h-10.17c-3.13,0-5.8-1.11-8.01-3.32-2.21-2.21-3.32-4.88-3.32-8.01v-5.72c0-.45-.15-.82-.46-1.13s-.68-.46-1.13-.46c-.57,0-1,.17-1.28.52-.29.35-.43.7-.43,1.07v6.64c0,3.78,1.34,7,4.02,9.68,2.68,2.68,5.91,4.02,9.68,4.02h5.91v3.23h-5.91c-3.78,0-7,1.33-9.68,3.99s-4.02,5.88-4.02,9.65v6.64c0,.45.14.83.43,1.16.28.32.67.49,1.16.49s.89-.16,1.22-.49c.32-.33.49-.71.49-1.16v-5.72c0-3.13,1.11-5.8,3.32-8.01,2.21-2.21,4.88-3.32,8.01-3.32h10.17v21.93Z"/>
    </g>
    <g>
      <path class="cls-3" d="M30.67,125.74H12.4v-40.2c0-3.69,1.31-6.84,3.93-9.44,2.62-2.6,5.78-3.9,9.47-3.9h29.66v21.86h-10.17c-3.13,0-5.81-1.11-8.04-3.32-2.23-2.21-3.35-4.88-3.35-8.01v-5.72c0-.45-.14-.82-.43-1.13-.28-.3-.65-.46-1.1-.46-.57,0-1,.17-1.28.52-.28.35-.43.7-.43,1.07v6.64c0,3.78,1.34,7,4.02,9.68,2.68,2.68,5.91,4.02,9.68,4.02h5.85v3.23h-5.85c-3.78,0-7,1.33-9.68,3.99-2.68,2.66-4.02,5.88-4.02,9.65v11.51Z"/>
      <path class="cls-3" d="M82.56,125.74h-18.27v-53.53h18.27v53.53Z"/>
      <path class="cls-3" d="M134.45,125.74h-43.06v-14.01c.24-3.65,1.64-6.7,4.2-9.14s5.62-3.65,9.2-3.65c-3.57,0-6.64-1.22-9.2-3.65s-3.96-5.48-4.2-9.14v-.61c0-3.69,1.31-6.84,3.93-9.44,2.62-2.6,5.78-3.9,9.47-3.9h29.66v21.86h-10.17c-3.13,0-5.8-1.11-8.01-3.32-2.21-2.21-3.32-4.88-3.32-8.01v-5.72c0-.45-.15-.82-.46-1.13-.3-.3-.68-.46-1.13-.46-.57,0-1,.17-1.28.52-.28.35-.43.7-.43,1.07v6.64c0,3.78,1.34,7,4.02,9.68,2.68,2.68,5.91,4.02,9.68,4.02h5.91v3.23h-5.91c-3.78,0-7,1.33-9.68,3.99-2.68,2.66-4.02,5.88-4.02,9.65v6.64c0,.45.14.83.43,1.16.28.32.67.49,1.16.49s.89-.16,1.22-.49c.32-.33.49-.71.49-1.16v-5.72c0-3.13,1.11-5.8,3.32-8.01s4.88-3.32,8.01-3.32h10.17v21.93Z"/>
      <path class="cls-3" d="M186.39,125.74h-43.12v-53.53h18.33v49.51c0,.49.15.88.46,1.19s.68.46,1.13.46c.49,0,.88-.17,1.19-.52.3-.35.46-.74.46-1.19v-6.52c0-3.13,1.11-5.8,3.32-8.01,2.21-2.21,4.88-3.32,8.01-3.32h10.23v21.93Z"/>
      <path class="cls-3" d="M224.95,125.74h-29.72v-53.53h29.72c3.69,0,6.85,1.3,9.47,3.9,2.62,2.6,3.93,5.75,3.93,9.44v27.41c-.28,3.65-1.7,6.7-4.23,9.14-2.54,2.44-5.59,3.65-9.17,3.65ZM215.14,122.51c.45,0,.83-.16,1.16-.49.32-.33.49-.71.49-1.16v-43.85c0-.37-.14-.72-.43-1.07-.29-.34-.69-.52-1.22-.52-.45,0-.83.15-1.16.46-.33.3-.49.68-.49,1.13v43.85c0,.97.55,1.52,1.64,1.64Z"/>
    </g>
    <path class="cls-3" d="M100,21.07c-1.1-2.27-2.71-4.1-4.84-5.48-2.13-1.38-4.54-2.07-7.22-2.07h-16.32c-3.57,0-6.63,1.22-9.17,3.65-2.54,2.44-3.93,5.46-4.17,9.07h-.06v27.41c0,3.69,1.31,6.85,3.93,9.47,2.62,2.62,5.78,3.93,9.47,3.93h16.32c3.69,0,6.85-1.31,9.47-3.93,2.62-2.62,3.93-5.78,3.93-9.47v-27.41c-.12-1.87-.57-3.59-1.34-5.18Z"/>
    <path class="cls-1" d="M98.32,40.28c.09,0,.16,0,.2,0-.04,0-.14,0-.3,0-1.86-.04-10.28-.37-14.08-3.29-4.02-3.09-4.33-12.1-4.35-13.17v-.11s0,.02,0,.06c0-.03,0-.06,0-.06v.11c-.02,1.07-.34,10.08-4.35,13.17-3.79,2.92-12.23,3.25-14.08,3.29-.18,0-.3,0-.34,0,.04,0,.12,0,.22,0-.09,0-.16,0-.2,0,.04,0,.14,0,.3,0,1.85.04,10.28.37,14.08,3.29,4.02,3.09,4.33,12.1,4.35,13.17v.11s0-.02,0-.06c0,.03,0,.06,0,.06v-.11c.02-1.07.34-10.08,4.35-13.17,3.79-2.92,12.23-3.25,14.08-3.29.18,0,.3,0,.34,0-.04,0-.12,0-.22,0Z"/>
  </g>
</svg>