<?xml version="1.0" encoding="UTF-8"?>
<svg id="Layer_1" xmlns="http://www.w3.org/2000/svg" version="1.1" viewBox="0 0 1155 1000">
  <!-- Generator: Adobe Illustrator 29.4.0, SVG Export Plug-In . SVG Version: 2.1.0 Build 152)  -->
  <defs>
    <style>
      .st0 {
        fill: #ff2900;
      }

      .st1 {
        fill: none;
      }
    </style>
  </defs>
  <polygon class="st1" points="481.2 941.2 1007.8 637.2 1007.8 616.7 463.5 931 481.2 941.2"/>
  <polygon class="st1" points="572 993.6 1007.8 742 1007.8 706.7 541.4 976 572 993.6"/>
  <polygon class="st1" points="314.6 845 1007.8 444.8 1007.8 436.9 307.7 841 314.6 845"/>
  <polygon class="st1" points="442.3 918.7 1007.8 592.2 1007.8 571.8 424.5 908.5 442.3 918.7"/>
  <polygon class="st1" points="528.1 968.3 1007.8 691.3 1007.8 661.7 502.4 953.5 528.1 968.3"/>
  <polygon class="st1" points="353.5 867.5 1007.8 489.8 1007.8 481.8 346.6 863.5 353.5 867.5"/>
  <polygon class="st1" points="392.5 890 1007.8 534.8 1007.8 526.8 385.6 886 392.5 890"/>
  <polygon class="st0" points="1007.8 436.9 1007.8 251.6 577.5 3.2 147.2 251.6 147.2 748.4 307.7 841 1007.8 436.9"/>
  <polygon class="st0" points="346.6 863.5 1007.8 481.8 1007.8 444.8 314.6 845 346.6 863.5"/>
  <polygon class="st0" points="385.6 886 1007.8 526.8 1007.8 489.8 353.5 867.5 385.6 886"/>
  <polygon class="st0" points="424.5 908.5 1007.8 571.8 1007.8 534.8 392.5 890 424.5 908.5"/>
  <polygon class="st0" points="463.5 931 1007.8 616.7 1007.8 592.2 442.3 918.7 463.5 931"/>
  <polygon class="st0" points="502.4 953.5 1007.8 661.7 1007.8 637.2 481.2 941.2 502.4 953.5"/>
  <polygon class="st0" points="541.4 976 1007.8 706.7 1007.8 691.3 528.1 968.3 541.4 976"/>
  <polygon class="st0" points="577.5 996.8 1007.8 748.4 1007.8 742 572 993.6 577.5 996.8"/>
</svg>